<?xml version="1.0" standalone="no"?>
<!DOCTYPE svg PUBLIC "-//W3C//DTD SVG 20010904//EN"
 "http://www.w3.org/TR/2001/REC-SVG-20010904/DTD/svg10.dtd">
<svg version="1.0" xmlns="http://www.w3.org/2000/svg"
 width="503.000000pt" height="496.000000pt" viewBox="0 0 503.000000 496.000000"
 preserveAspectRatio="xMidYMid meet">

<g transform="translate(0.000000,496.000000) scale(0.100000,-0.100000)"
fill="#000000" stroke="none">
<path d="M2105 4106 c-345 -66 -646 -227 -892 -477 -289 -294 -446 -637 -483
-1056 -30 -325 55 -707 218 -978 46 -77 140 -213 153 -221 8 -4 10 176 8 577
-2 617 0 655 45 810 133 457 467 778 944 906 88 24 114 26 287 26 173 0 199
-2 287 -26 204 -54 355 -129 513 -252 172 -134 322 -341 396 -547 l24 -68 233
0 c217 0 233 1 229 18 -39 140 -58 196 -103 300 -220 515 -684 883 -1244 988
-176 33 -441 33 -615 0z"/>
<path d="M2242 3590 c-468 -66 -857 -401 -983 -845 -22 -79 -23 -88 -26 -799
l-4 -720 43 -39 c56 -50 138 -114 213 -164 82 -55 235 -134 247 -127 5 4 8
106 5 254 -2 137 -1 254 3 259 4 7 45 -8 111 -42 185 -93 323 -126 529 -126
160 -1 239 11 368 54 360 121 627 383 754 740 45 127 69 115 -236 115 l-264 0
-32 -57 c-42 -75 -167 -198 -249 -247 -195 -114 -426 -127 -625 -37 -219 99
-365 295 -396 535 -44 325 157 637 480 746 219 73 459 25 645 -130 33 -27 78
-74 100 -104 l40 -55 268 -1 c175 0 267 4 267 10 0 6 -19 50 -41 98 -164 344
-458 582 -819 663 -98 22 -306 32 -398 19z"/>
<path d="M3024 2714 c-7 -3 -2 -30 14 -77 37 -113 40 -233 6 -369 l-6 -28 303
-2 304 -3 -3 -35 c-5 -58 -51 -218 -85 -294 -72 -162 -161 -289 -293 -416
-145 -139 -308 -236 -504 -298 -135 -43 -227 -56 -375 -56 -185 0 -240 11
-527 110 -17 6 -18 -8 -18 -199 l0 -205 68 -21 c484 -153 1028 -74 1448 210
251 169 446 394 589 678 91 181 128 312 152 545 14 137 15 180 5 304 -7 79
-15 148 -18 153 -5 9 -1039 12 -1060 3z"/>
</g>
</svg>
