<?xml version="1.0" standalone="no"?>
<!DOCTYPE svg PUBLIC "-//W3C//DTD SVG 20010904//EN"
 "http://www.w3.org/TR/2001/REC-SVG-20010904/DTD/svg10.dtd">
<svg version="1.0" xmlns="http://www.w3.org/2000/svg"
 width="480.000000pt" height="520.000000pt" viewBox="0 0 480.000000 520.000000"
 preserveAspectRatio="xMidYMid meet">

<g transform="translate(0.000000,520.000000) scale(0.100000,-0.100000)"
fill="#000000" stroke="none">
<path d="M2130 4559 c-346 -39 -727 -198 -1015 -423 -83 -65 -242 -222 -314
-309 -181 -223 -328 -521 -397 -805 -70 -293 -72 -638 -4 -927 68 -291 222
-616 375 -790 l35 -40 0 710 c0 391 4 737 9 770 34 221 124 449 252 635 239
350 603 583 1023 655 118 20 373 20 491 -1 325 -56 603 -198 834 -426 208
-207 319 -402 417 -735 3 -10 66 -13 274 -13 l270 0 0 23 c0 34 -64 272 -101
372 -66 182 -189 400 -318 560 -331 413 -829 687 -1353 744 -112 13 -368 12
-478 0z"/>
<path d="M2185 3924 c-289 -42 -526 -144 -735 -314 -200 -163 -359 -396 -443
-650 -52 -155 -57 -253 -57 -1090 l0 -768 76 -69 c85 -77 208 -167 304 -223
85 -50 205 -110 219 -110 8 0 11 97 11 320 0 176 2 320 5 320 3 0 30 -15 60
-34 142 -92 361 -164 563 -187 115 -13 325 -5 432 17 476 98 876 440 1047 894
35 92 76 271 66 281 -5 5 -142 8 -308 7 l-298 -3 -31 -75 c-101 -239 -305
-418 -566 -496 -51 -15 -95 -19 -210 -19 -137 1 -150 2 -240 33 -270 93 -475
306 -545 567 -24 88 -30 274 -12 360 48 227 185 426 377 551 164 106 345 148
536 125 261 -32 490 -186 620 -418 l46 -83 299 0 c197 0 300 4 304 11 10 16
-42 163 -95 270 -196 394 -542 664 -975 761 -87 19 -372 33 -450 22z"/>
<path d="M3130 2783 c0 -5 7 -48 16 -98 12 -65 14 -118 10 -192 l-7 -103 358
-2 358 -3 -3 -40 c-2 -22 -10 -78 -19 -125 -60 -331 -251 -649 -533 -887 -122
-104 -336 -220 -500 -272 -185 -59 -235 -66 -475 -65 -193 0 -231 3 -310 22
-107 27 -199 56 -277 88 -32 13 -60 24 -63 24 -8 0 -6 -464 3 -477 28 -44 308
-106 556 -123 726 -52 1427 296 1829 907 214 326 307 598 336 986 9 116 1 310
-14 350 -7 16 -46 17 -636 17 -346 0 -629 -3 -629 -7z"/>
</g>
</svg>
